<?xml version="1.0" encoding="utf-8"?>
<!-- Generator: Adobe Illustrator 23.1.0, SVG Export Plug-In . SVG Version: 6.00 Build 0)  -->
<svg version="1.1" id="Capa_1" xmlns="http://www.w3.org/2000/svg" xmlns:xlink="http://www.w3.org/1999/xlink" x="0px" y="0px"
	 viewBox="0 0 508 508" style="enable-background:new 0 0 508 508;" xml:space="preserve">
<style type="text/css">
	.st0{fill:#41596B;}
	.st1{fill:#89D6F7;}
</style>
<g>
	<ellipse class="st0" cx="254" cy="256.4" rx="250" ry="246.1"/>
	<path class="st1" d="M254,4.5C115.9,4.5,4,116.4,4,254.5C4,354,62.2,439.6,146.4,479.9l7.8-151.2c0,0-14.7-4.8-17.9-6.4
		C105,308.5,82.3,268,82.3,215.5c0-57.3,44.5-106.7,87.5-107.2c0.1,0,0.1,0,0.1,0c0,0,0.1,0,0.1,0c43,0.4,87.5,49.8,87.5,107.2
		c0,52.6-22.7,93-53.9,106.8c-0.2,0.1-18.1,6.6-18.1,6.6l8.7,168.1c19.2,4.7,39.1,7.5,59.7,7.5c27.8,0,54.5-4.7,79.5-13.1l7.7-149.8
		c-20.4-4.5-37.8-17.5-48.7-33.8c-13.5-20.2,10.4-199.4,10.4-199.4h15.6v168.2h15.5V108.3h16.9v168.2h15.4V108.3h17.5v168.2h15.4
		V108.3h11.9c0,0,23.9,179.2,10.4,199.4c-10.8,16.1-28,29.1-48.2,33.7c-0.4,0.1-0.7,0.3-0.7,0.3l6.7,128.9
		C453.8,427.3,504,346.8,504,254.5C503.9,116.4,392,4.5,254,4.5z"/>
</g>
</svg>
